<?xml version="1.0" encoding="UTF-8" standalone="no"?>
<!-- Generator: Adobe Illustrator 18.1.1, SVG Export Plug-In . SVG Version: 6.00 Build 0)  -->

<svg
   xmlns:dc="http://purl.org/dc/elements/1.1/"
   xmlns:cc="http://creativecommons.org/ns#"
   xmlns:rdf="http://www.w3.org/1999/02/22-rdf-syntax-ns#"
   xmlns:svg="http://www.w3.org/2000/svg"
   xmlns="http://www.w3.org/2000/svg"
   xmlns:sodipodi="http://sodipodi.sourceforge.net/DTD/sodipodi-0.dtd"
   xmlns:inkscape="http://www.inkscape.org/namespaces/inkscape"
   version="1.0"
   id="Ebene_2"
   x="0px"
   y="0px"
   viewBox="0 0 153.42723 163.41324"
   enable-background="new 0 0 841.9 595.3"
   xml:space="preserve"
   inkscape:version="0.91 r13725"
   sodipodi:docname="logo2.svg"
   width="153.42723"
   height="163.41324"><metadata
     id="metadata3875"><rdf:RDF><cc:Work
         rdf:about=""><dc:format>image/svg+xml</dc:format><dc:type
           rdf:resource="http://purl.org/dc/dcmitype/StillImage" /><dc:title></dc:title></cc:Work></rdf:RDF></metadata><defs
     id="defs3873" /><sodipodi:namedview
     pagecolor="#ffffff"
     bordercolor="#666666"
     borderopacity="1"
     objecttolerance="10"
     gridtolerance="10"
     guidetolerance="10"
     inkscape:pageopacity="0"
     inkscape:pageshadow="2"
     inkscape:window-width="1713"
     inkscape:window-height="961"
     id="namedview3871"
     showgrid="false"
     units="px"
     inkscape:zoom="0.34772384"
     inkscape:cx="1506.6236"
     inkscape:cy="-615.6705"
     inkscape:window-x="0"
     inkscape:window-y="0"
     inkscape:window-maximized="0"
     inkscape:current-layer="g3965"
     fit-margin-top="0"
     fit-margin-left="0"
     fit-margin-right="0"
     fit-margin-bottom="0" /><g
     id="g3965"
     transform="translate(-172.8388,-340.01868)"><g
       id="g4046"
       transform="matrix(1.0207948,0,0,1.0207948,-3.9610973,-8.9053868)"><path
         inkscape:export-ydpi="309.46967"
         inkscape:export-xdpi="309.46967"
         inkscape:export-filename="/Users/ak/Projekty/DonProjekt/Design/logo"
         inkscape:connector-curvature="0"
         style="color:#000000;font-style:normal;font-variant:normal;font-weight:normal;font-stretch:normal;font-size:medium;line-height:normal;font-family:sans-serif;text-indent:0;text-align:start;text-decoration:none;text-decoration-line:none;text-decoration-style:solid;text-decoration-color:#000000;letter-spacing:normal;word-spacing:normal;text-transform:none;direction:ltr;block-progression:tb;writing-mode:lr-tb;baseline-shift:baseline;text-anchor:start;white-space:normal;clip-rule:nonzero;display:inline;overflow:visible;visibility:visible;opacity:1;isolation:auto;mix-blend-mode:normal;color-interpolation:sRGB;color-interpolation-filters:linearRGB;solid-color:#000000;solid-opacity:1;fill:#000000;fill-opacity:1;fill-rule:nonzero;stroke:none;stroke-width:4;stroke-linecap:butt;stroke-linejoin:miter;stroke-miterlimit:10;stroke-dasharray:none;stroke-dashoffset:0;stroke-opacity:1;color-rendering:auto;image-rendering:auto;shape-rendering:auto;text-rendering:auto;enable-background:accumulate"
         d="m 231.00453,353.6943 c -0.0559,0.12557 -0.13996,0.23419 -0.19318,0.36117 -0.47959,1.14402 -0.85402,2.34506 -1.10662,3.58861 -0.0547,0.2695 -0.0406,0.5602 -0.084,0.83363 0.0646,-0.0176 0.13065,-0.0308 0.19529,-0.0483 0.0149,-0.066 0.0117,-0.13797 0.0273,-0.20368 0.29037,-1.22735 0.69171,-2.40976 1.1948,-3.53611 0.18457,-0.41324 0.44835,-0.77644 0.65935,-1.17381 -0.23357,0.053 -0.4602,0.12332 -0.69295,0.17849 z"
         id="path3960" /><path
         inkscape:export-ydpi="309.46967"
         inkscape:export-xdpi="309.46967"
         inkscape:export-filename="/Users/ak/Projekty/DonProjekt/Design/logo"
         inkscape:connector-curvature="0"
         style="color:#000000;font-style:normal;font-variant:normal;font-weight:normal;font-stretch:normal;font-size:medium;line-height:normal;font-family:sans-serif;text-indent:0;text-align:start;text-decoration:none;text-decoration-line:none;text-decoration-style:solid;text-decoration-color:#000000;letter-spacing:normal;word-spacing:normal;text-transform:none;direction:ltr;block-progression:tb;writing-mode:lr-tb;baseline-shift:baseline;text-anchor:start;white-space:normal;clip-rule:nonzero;display:inline;overflow:visible;visibility:visible;opacity:1;isolation:auto;mix-blend-mode:normal;color-interpolation:sRGB;color-interpolation-filters:linearRGB;solid-color:#000000;solid-opacity:1;fill:#000000;fill-opacity:1;fill-rule:nonzero;stroke:none;stroke-width:4;stroke-linecap:butt;stroke-linejoin:miter;stroke-miterlimit:10;stroke-dasharray:none;stroke-dashoffset:0;stroke-opacity:1;color-rendering:auto;image-rendering:auto;shape-rendering:auto;text-rendering:auto;enable-background:accumulate"
         d="m 264.9651,353.50741 c 0.60379,1.16985 1.1532,2.37725 1.50978,3.67261 0.1045,0.37959 0.0906,0.79991 0.17219,1.18849 0.0467,0.0125 0.0941,0.0231 0.14069,0.0357 -0.086,-0.53139 -0.0672,-1.0976 -0.19529,-1.61267 -0.27827,-1.11867 -0.74463,-2.14874 -1.2074,-3.17705 -0.14119,-0.0328 -0.27847,-0.075 -0.41997,-0.10708 z"
         id="path3958" /><path
         inkscape:export-ydpi="309.46967"
         inkscape:export-xdpi="309.46967"
         inkscape:export-filename="/Users/ak/Projekty/DonProjekt/Design/logo"
         inkscape:connector-curvature="0"
         style="color:#000000;font-style:normal;font-variant:normal;font-weight:normal;font-stretch:normal;font-size:medium;line-height:normal;font-family:sans-serif;text-indent:0;text-align:start;text-decoration:none;text-decoration-line:none;text-decoration-style:solid;text-decoration-color:#000000;letter-spacing:normal;word-spacing:normal;text-transform:none;direction:ltr;block-progression:tb;writing-mode:lr-tb;baseline-shift:baseline;text-anchor:start;white-space:normal;clip-rule:nonzero;display:inline;overflow:visible;visibility:visible;opacity:1;isolation:auto;mix-blend-mode:normal;color-interpolation:sRGB;color-interpolation-filters:linearRGB;solid-color:#000000;solid-opacity:1;fill:#000000;fill-opacity:1;fill-rule:nonzero;stroke:none;stroke-width:4;stroke-linecap:butt;stroke-linejoin:miter;stroke-miterlimit:10;stroke-dasharray:none;stroke-dashoffset:0;stroke-opacity:1;color-rendering:auto;image-rendering:auto;shape-rendering:auto;text-rendering:auto;enable-background:accumulate"
         d="m 268.7826,359.12026 c 29.13461,8.78825 50.41695,35.61321 50.41695,67.62927 0,39.15484 -31.69558,70.85041 -70.85041,70.85041 -39.15485,0 -70.85041,-31.69557 -70.85041,-70.85041 0,-31.86627 20.99661,-58.78481 49.91929,-67.70487 0.20844,-0.69241 0.42688,-1.39093 0.39687,-1.92344 -0.0403,-0.71563 -0.3221,-1.27565 -0.91764,-1.65887 -0.2975,-0.19144 -0.9357,-0.19484 -1.39848,-0.29398 -30.31401,9.68193 -52.3005,38.07204 -52.3005,71.58116 0,41.47898 33.67189,75.15086 75.15087,75.15086 41.47897,0 75.15086,-33.67188 75.15086,-75.15086 0,-33.63187 -22.17075,-62.04614 -52.65957,-71.61895 -0.54455,0.0981 -1.23706,0.11641 -1.57068,0.33177 -0.59361,0.38322 -0.87226,0.94535 -0.90922,1.66097 -0.0286,0.55329 0.19333,1.27143 0.42207,1.99694 z"
         id="path3963" /><line
         inkscape:export-ydpi="309.46967"
         inkscape:export-xdpi="309.46967"
         inkscape:export-filename="/Users/ak/Projekty/DonProjekt/Design/logo"
         id="line3804"
         y2="458.68042"
         x2="303.61041"
         y1="458.68042"
         x1="192.55115" /><path
         inkscape:export-ydpi="309.46967"
         inkscape:export-xdpi="309.46967"
         inkscape:export-filename="/Users/ak/Projekty/DonProjekt/Design/logo"
         inkscape:connector-curvature="0"
         d="m 192.55116,460.29307 c 32.46843,0 64.93686,0 97.40529,0 4.51548,0 9.13847,0 13.65395,0 2.04271,0 2.04271,-3.22534 0,-3.22534 -32.46843,0 -64.93687,0 -97.4053,0 -4.51548,0 -9.13846,0 -13.65394,0 -2.15023,0 -2.15023,3.22534 0,3.22534 l 0,0 z"
         id="path3808" /><g
         transform="matrix(1.0751136,0,0,1.0751136,-26.449492,-33.399114)"
         id="g3814"
         inkscape:export-filename="/Users/ak/Projekty/DonProjekt/Design/logo"
         inkscape:export-xdpi="309.46967"
         inkscape:export-ydpi="309.46967"><path
           inkscape:connector-curvature="0"
           id="path3818"
           transform="translate(171.83177,-91.30809)"
           d="m 83.507812,440.30859 c -9.8,0 -17.798828,7.89883 -17.798828,17.79883 0,9.8 15.098829,33.20117 17.798828,33.20117 2.400001,0 17.800778,-23.30117 17.800778,-33.20117 0,-9.8 -8.000777,-17.79883 -17.800778,-17.79883 z m -0.09961,4.29883 a 13.2,13.2 0 0 1 13.201172,13.20117 13.2,13.2 0 0 1 -13.201172,13.19922 13.2,13.2 0 0 1 -13.199219,-13.19922 13.2,13.2 0 0 1 13.199219,-13.20117 z" /><linearGradient
           gradientTransform="translate(-0.35948067,0)"
           id="SVGID_1_"
           gradientUnits="userSpaceOnUse"
           x1="244.15649"
           y1="365.41959"
           x2="267.0545"
           y2="365.41959"><stop
             offset="0"
             style="stop-color:#000000"
             id="stop3825" /><stop
             offset="1"
             style="stop-color:#000000"
             id="stop3827" /></linearGradient><path
           inkscape:connector-curvature="0"
           style="fill:url(#SVGID_1_)"
           d="m 255.24052,365.2 c 2.5,2.2 5.6,3.1 5.6,3.1 2.5,0.7 4.1,0.2 4.1,0.2 2.5,-0.8 1.5,-2.9 1.5,-2.9 -0.4,-0.9 -1.5,-0.7 -1.5,-0.7 0.4,0.3 0.5,0.6 0.5,0.6 0.2,0.5 -0.1,0.7 -0.1,0.7 -0.4,0.4 -1.2,-0.4 -1.2,-0.4 -0.6,-0.6 -2.2,-2 -2.2,-2 -3.6,-3.3 -6.7,-0.8 -6.7,-0.8 l -0.1,0 c 0,0 -3.1,-2.5 -6.7,0.8 0,0 -1.6,1.4 -2.2,2 0,0 -0.8,0.8 -1.2,0.4 0,0 -0.3,-0.2 -0.1,-0.7 0,0 0.1,-0.3 0.5,-0.6 0,0 -1.1,-0.2 -1.5,0.7 0,0 -1,2.1 1.5,2.9 0,0 1.6,0.5 4.1,-0.2 0.1,0 3.2,-0.9 5.7,-3.1 l 0,0 0,0 z"
           id="path3829" /></g><line
         inkscape:export-ydpi="309.46967"
         inkscape:export-xdpi="309.46967"
         inkscape:export-filename="/Users/ak/Projekty/DonProjekt/Design/logo"
         x1="199.5394"
         y1="395.57123"
         x2="217.38629"
         y2="395.57123"
         id="line3835" /><path
         inkscape:export-ydpi="309.46967"
         inkscape:export-xdpi="309.46967"
         inkscape:export-filename="/Users/ak/Projekty/DonProjekt/Design/logo"
         id="path3839"
         d="m 199.5394,397.1839 c 5.91312,0 11.93376,0 17.84688,0 2.04272,0 2.04272,-3.22534 0,-3.22534 -5.91312,0 -11.93376,0 -17.84688,0 -2.15023,0 -2.15023,3.22534 0,3.22534 l 0,0 z"
         inkscape:connector-curvature="0" /><line
         inkscape:export-ydpi="309.46967"
         inkscape:export-xdpi="309.46967"
         inkscape:export-filename="/Users/ak/Projekty/DonProjekt/Design/logo"
         x1="277.91519"
         y1="396.1088"
         x2="295.76208"
         y2="396.1088"
         id="line3843" /><path
         inkscape:export-ydpi="309.46967"
         inkscape:export-xdpi="309.46967"
         inkscape:export-filename="/Users/ak/Projekty/DonProjekt/Design/logo"
         id="path3847"
         d="m 277.91518,397.72146 c 5.91313,0 11.93376,0 17.84689,0 2.04271,0 2.04271,-3.22534 0,-3.22534 -5.91313,0 -11.93376,0 -17.84689,0 -2.04271,0 -2.04271,3.22534 0,3.22534 l 0,0 z"
         inkscape:connector-curvature="0" /><path
         inkscape:export-ydpi="309.46967"
         inkscape:export-xdpi="309.46967"
         inkscape:export-filename="/Users/ak/Projekty/DonProjekt/Design/logo"
         id="path3851"
         d="m 222.86936,421.26645 0,-18.27693 7.09575,0 c 6.12815,0 9.24598,4.08543 9.24598,9.13846 0,5.59059 -3.65539,9.13847 -9.24598,9.13847 l -7.09575,0 z m 7.09575,-13.86897 -2.04271,0 0,9.56851 2.04271,0 c 2.58028,0 4.08543,-2.04271 4.08543,-4.83801 0,-2.90281 -1.50515,-4.7305 -4.08543,-4.7305 z"
         inkscape:connector-curvature="0" /><path
         inkscape:export-ydpi="309.46967"
         inkscape:export-xdpi="309.46967"
         inkscape:export-filename="/Users/ak/Projekty/DonProjekt/Design/logo"
         id="path3853"
         d="m 240.39372,412.12798 c 0,-4.83801 3.76289,-9.24598 8.81593,-9.24598 5.26805,0 8.70842,4.62299 8.70842,9.35349 0,4.83801 -3.65539,9.24598 -8.81593,9.24598 -5.16055,0 -8.70842,-4.62299 -8.70842,-9.35349 z m 8.81593,4.83801 c 2.58027,0 3.65538,-2.47276 3.65538,-4.83801 0,-2.47276 -1.18262,-4.7305 -3.65538,-4.7305 -2.58028,0 -3.65539,2.47276 -3.65539,4.83801 0,2.36525 1.18263,4.7305 3.65539,4.7305 z"
         inkscape:connector-curvature="0" /><path
         inkscape:export-ydpi="309.46967"
         inkscape:export-xdpi="309.46967"
         inkscape:export-filename="/Users/ak/Projekty/DonProjekt/Design/logo"
         id="path3855"
         d="m 265.22884,412.23549 0,9.03096 -5.05303,0 0,-18.27693 3.87041,0 7.31077,9.35348 0,-9.35348 5.05303,0 0,18.27693 -3.97792,0 -7.20326,-9.03096 z"
         inkscape:connector-curvature="0" /><path
         inkscape:export-ydpi="309.46967"
         inkscape:export-xdpi="309.46967"
         inkscape:export-filename="/Users/ak/Projekty/DonProjekt/Design/logo"
         id="path3857"
         d="m 200.07695,447.92927 -9.03095,0 0,-18.27694 10.64362,0 c 2.58028,0 4.19295,2.36525 4.19295,4.7305 0,1.72019 -0.86009,3.44037 -2.58028,4.19295 2.04272,0.64507 3.44037,2.15022 3.44037,4.7305 -0.10751,3.22534 -3.01032,4.62299 -6.66571,4.62299 z m -3.97792,-13.97648 0,2.79529 3.44037,0 c 0.64506,0 1.39764,-0.32253 1.39764,-1.39764 0,-0.96761 -0.53755,-1.39765 -1.18262,-1.39765 l -3.65539,0 z m 4.19295,6.6657 -4.19295,0 0,3.11783 3.97792,0 c 0.86009,0 1.50516,-0.53755 1.50516,-1.50516 0,-0.86009 -0.53755,-1.61267 -1.29013,-1.61267 z"
         inkscape:connector-curvature="0" /><path
         inkscape:export-ydpi="309.46967"
         inkscape:export-xdpi="309.46967"
         inkscape:export-filename="/Users/ak/Projekty/DonProjekt/Design/logo"
         id="path3859"
         d="m 220.07407,439.00582 0,-9.461 5.05303,0 0,9.461 c 0,5.16055 -2.58027,9.03096 -8.27837,9.03096 -5.80562,0 -8.27838,-4.19295 -8.27838,-9.03096 l 0,-9.461 5.05304,0 0,9.461 c 0,2.47276 0.86009,4.62299 3.22534,4.62299 2.36525,0 3.22534,-2.25774 3.22534,-4.62299 z"
         inkscape:connector-curvature="0" /><path
         inkscape:export-ydpi="309.46967"
         inkscape:export-xdpi="309.46967"
         inkscape:export-filename="/Users/ak/Projekty/DonProjekt/Design/logo"
         id="path3861"
         d="m 239.10358,435.56546 c 0,0 -2.68779,-1.72018 -4.83801,-1.72018 -0.86009,0 -1.50516,0.21502 -1.50516,0.86009 0,0.9676 1.29013,1.18262 3.44036,1.82769 3.33285,1.07511 5.48308,2.25774 5.48308,5.6981 0,4.40797 -3.54787,5.80562 -6.98824,5.80562 -2.68778,0 -5.80561,-0.86009 -7.95584,-2.15023 l 2.15023,-4.40797 c 0,0 3.11783,2.04272 5.91312,2.04272 1.07512,0 1.50516,-0.32253 1.50516,-0.75258 0,-1.07511 -1.9352,-1.29014 -4.08543,-2.04272 -3.22534,-1.07511 -4.62299,-2.47276 -4.62299,-5.16054 0,-4.08543 3.22534,-6.23566 6.88073,-6.23566 2.68778,0 5.16055,1.18262 6.88073,1.9352 l -2.25774,4.30046 z"
         inkscape:connector-curvature="0" /><path
         inkscape:export-ydpi="309.46967"
         inkscape:export-xdpi="309.46967"
         inkscape:export-filename="/Users/ak/Projekty/DonProjekt/Design/logo"
         id="path3863"
         d="m 251.78992,429.54482 c 3.22534,0 5.80561,1.61267 6.98824,3.97792 l -3.87041,2.68779 c -0.64507,-1.8277 -2.15023,-2.25774 -3.22534,-2.25774 -2.58027,0 -3.65539,2.47276 -3.65539,4.83801 0,2.58027 1.39765,4.83801 3.65539,4.83801 1.18262,0 2.58027,-0.64507 3.11783,-2.25774 l 4.08543,2.47276 c -1.07511,2.68779 -4.40797,4.30046 -7.31077,4.30046 -5.16055,0 -8.70842,-4.7305 -8.70842,-9.461 0,-4.51548 3.33285,-9.13847 8.92344,-9.13847 z"
         inkscape:connector-curvature="0" /><path
         inkscape:export-ydpi="309.46967"
         inkscape:export-xdpi="309.46967"
         inkscape:export-filename="/Users/ak/Projekty/DonProjekt/Design/logo"
         id="path3865"
         d="m 258.77816,447.92927 6.88073,-18.27694 4.08543,0 6.77321,18.27694 -5.26805,0 -1.07512,-3.54788 -4.83801,0 -1.07511,3.54788 -5.48308,0 z m 8.81593,-13.00888 -1.72018,6.12815 3.33285,0 -1.61267,-6.12815 z"
         inkscape:connector-curvature="0" /><path
         inkscape:export-ydpi="309.46967"
         inkscape:export-xdpi="309.46967"
         inkscape:export-filename="/Users/ak/Projekty/DonProjekt/Design/logo"
         id="path3867"
         d="m 277.80767,447.92927 0,-18.27694 5.05303,0 0,13.97648 8.27838,0 0,4.40797 -13.33141,0 z"
         inkscape:connector-curvature="0" /><path
         inkscape:export-ydpi="309.46967"
         inkscape:export-xdpi="309.46967"
         inkscape:export-filename="/Users/ak/Projekty/DonProjekt/Design/logo"
         id="path3869"
         d="m 291.67664,438.7908 c 0,-4.83801 3.76289,-9.24598 8.81593,-9.24598 5.26805,0 8.70842,4.62299 8.70842,9.35349 0,4.83801 -3.65539,9.24598 -8.81593,9.24598 -5.16055,0 -8.70842,-4.62299 -8.70842,-9.35349 z m 8.81593,4.83801 c 2.58027,0 3.65538,-2.47276 3.65538,-4.83801 0,-2.47276 -1.18262,-4.7305 -3.65538,-4.7305 -2.58027,0 -3.65539,2.47276 -3.65539,4.83801 -0.10751,2.36525 1.18263,4.7305 3.65539,4.7305 z"
         inkscape:connector-curvature="0" /></g></g></svg>