<?xml version="1.0" encoding="UTF-8" standalone="no"?>
<svg
   xmlns:dc="http://purl.org/dc/elements/1.1/"
   xmlns:cc="http://creativecommons.org/ns#"
   xmlns:rdf="http://www.w3.org/1999/02/22-rdf-syntax-ns#"
   xmlns:svg="http://www.w3.org/2000/svg"
   xmlns="http://www.w3.org/2000/svg"
   xmlns:xlink="http://www.w3.org/1999/xlink"
   height="51"
   width="35.600929"
   xml:space="preserve"
   enable-background="new 0 0 841.9 595.3"
   viewBox="0 0 35.600928 51.000001"
   y="0px"
   x="0px"
   id="Ebene_2"
   version="1.0"><metadata
     id="metadata22"><rdf:RDF><cc:Work
         rdf:about=""><dc:format>image/svg+xml</dc:format><dc:type
           rdf:resource="http://purl.org/dc/dcmitype/StillImage" /><dc:title></dc:title></cc:Work></rdf:RDF></metadata><defs
     id="defs20" /><g
     style="fill:#464347;stroke:none;fill-opacity:1"
     transform="translate(-237.8,-349)"
     id="g3"><path
       style="fill:#464347;stroke:none;fill-opacity:1"
       id="path5"
       d="m 255.6,349 c -9.9,0 -17.8,8 -17.8,17.8 0,9.9 15.2,33.2 17.8,33.2 2.5,0 17.8,-23.4 17.8,-33.2 0.1,-9.8 -7.9,-17.8 -17.8,-17.8 z m 0,30.7 c -7.3,0 -13.2,-5.9 -13.2,-13.2 0,-7.3 5.9,-13.2 13.2,-13.2 7.3,0 13.2,5.9 13.2,13.2 0.1,7.3 -5.8,13.2 -13.2,13.2 z" /><path
       style="fill:#464347;stroke:none;fill-opacity:1"
       id="path7"
       d="m 266.9,365.7 c 0,0 1,2.1 -1.5,2.9 0,0 -1.6,0.5 -4.1,-0.2 0,0 -3.1,-0.9 -5.6,-3.1 l -0.1,0 c -2.5,2.2 -5.6,3.1 -5.6,3.1 -2.5,0.7 -4.1,0.2 -4.1,0.2 -2.5,-0.8 -1.5,-2.9 -1.5,-2.9 0.4,-0.9 1.5,-0.7 1.5,-0.7 -0.4,0.3 -0.5,0.6 -0.5,0.6 -0.2,0.5 0.1,0.7 0.1,0.7 0.4,0.4 1.2,-0.4 1.2,-0.4 0.6,-0.6 2.2,-2 2.2,-2 3.6,-3.3 6.7,-0.8 6.7,-0.8 l 0.1,0 c 0,0 3.1,-2.5 6.7,0.8 0,0 1.6,1.4 2.2,2 0,0 0.8,0.8 1.2,0.4 0,0 0.3,-0.2 0.1,-0.7 0,0 -0.1,-0.3 -0.5,-0.6 0,0 1.1,-0.2 1.5,0.7 z" /><path
       style="fill:#464347;stroke:none;fill-opacity:1"
       id="path9"
       d="m 265.9,365.6 c 0.2,0.5 -0.1,0.7 -0.1,0.7 -0.4,0.4 -1.2,-0.4 -1.2,-0.4 -0.6,-0.6 -2.2,-2 -2.2,-2 -3.6,-3.3 -6.7,-0.8 -6.7,-0.8 l -0.1,0 c 0,0 -3.1,-2.5 -6.7,0.8 0,0 -1.6,1.4 -2.2,2 0,0 -0.8,0.8 -1.2,0.4 0,0 -0.3,-0.2 -0.1,-0.7 0,0 0.1,-0.3 0.5,-0.6 0,0 -1.1,-0.2 -1.5,0.7 0,0 -1,2.1 1.5,2.9 0,0 1.6,0.5 4.1,-0.2 0,0 3.1,-0.9 5.6,-3.1 l 0.1,0 c 2.5,2.2 5.6,3.1 5.6,3.1 2.5,0.7 4.1,0.2 4.1,0.2 2.5,-0.8 1.5,-2.9 1.5,-2.9 -0.4,-0.9 -1.5,-0.7 -1.5,-0.7 0.4,0.3 0.5,0.6 0.5,0.6 z" /><linearGradient
       y2="365.41959"
       x2="267.0545"
       y1="365.41959"
       x1="244.15649"
       gradientUnits="userSpaceOnUse"
       id="SVGID_1_"><stop
         id="stop12"
         style="stop-color:#000000"
         offset="0" /><stop
         id="stop14"
         style="stop-color:#000000"
         offset="1" /></linearGradient><path
       style="fill:#464347;stroke:none;fill-opacity:1"
       id="path16"
       d="m 265.9,365.6 c 0.2,0.5 -0.1,0.7 -0.1,0.7 -0.4,0.4 -1.2,-0.4 -1.2,-0.4 -0.6,-0.6 -2.2,-2 -2.2,-2 -3.6,-3.3 -6.7,-0.8 -6.7,-0.8 l -0.1,0 c 0,0 -3.1,-2.5 -6.7,0.8 0,0 -1.6,1.4 -2.2,2 0,0 -0.8,0.8 -1.2,0.4 0,0 -0.3,-0.2 -0.1,-0.7 0,0 0.1,-0.3 0.5,-0.6 0,0 -1.1,-0.2 -1.5,0.7 0,0 -1,2.1 1.5,2.9 0,0 1.6,0.5 4.1,-0.2 0,0 3.1,-0.9 5.6,-3.1 l 0.1,0 c 2.5,2.2 5.6,3.1 5.6,3.1 2.5,0.7 4.1,0.2 4.1,0.2 2.5,-0.8 1.5,-2.9 1.5,-2.9 -0.4,-0.9 -1.5,-0.7 -1.5,-0.7 0.4,0.3 0.5,0.6 0.5,0.6 z" /></g><use
     style="fill:#464347;stroke:none;fill-opacity:1"
     height="100%"
     width="100%"
     id="use4150"
     xlink:href="#g3"
     y="0"
     x="0" /><use
     style="fill:#464347;fill-opacity:1;stroke:none"
     height="100%"
     width="100%"
     x="0"
     y="0"
     xlink:href="#g3"
     id="use4152" /></svg>