<?xml version="1.0" encoding="UTF-8" standalone="no"?>
<!-- Generator: Adobe Illustrator 18.1.1, SVG Export Plug-In . SVG Version: 6.00 Build 0)  -->

<svg
   xmlns:dc="http://purl.org/dc/elements/1.1/"
   xmlns:cc="http://creativecommons.org/ns#"
   xmlns:rdf="http://www.w3.org/1999/02/22-rdf-syntax-ns#"
   xmlns:svg="http://www.w3.org/2000/svg"
   xmlns="http://www.w3.org/2000/svg"
   xmlns:xlink="http://www.w3.org/1999/xlink"
   xmlns:sodipodi="http://sodipodi.sourceforge.net/DTD/sodipodi-0.dtd"
   xmlns:inkscape="http://www.inkscape.org/namespaces/inkscape"
   version="1.0"
   id="Ebene_2"
   x="0px"
   y="0px"
   viewBox="0 0 35.600928 51.000001"
   enable-background="new 0 0 841.9 595.3"
   xml:space="preserve"
   inkscape:version="0.91 r13725"
   sodipodi:docname="map_icon_DB.svg"
   width="35.600929"
   height="51"><metadata
     id="metadata22"><rdf:RDF><cc:Work
         rdf:about=""><dc:format>image/svg+xml</dc:format><dc:type
           rdf:resource="http://purl.org/dc/dcmitype/StillImage" /><dc:title></dc:title></cc:Work></rdf:RDF></metadata><defs
     id="defs20" /><sodipodi:namedview
     pagecolor="#ffffff"
     bordercolor="#666666"
     borderopacity="1"
     objecttolerance="10"
     gridtolerance="10"
     guidetolerance="10"
     inkscape:pageopacity="0"
     inkscape:pageshadow="2"
     inkscape:window-width="1007"
     inkscape:window-height="707"
     id="namedview18"
     showgrid="false"
     fit-margin-top="0"
     fit-margin-left="0"
     fit-margin-right="0"
     fit-margin-bottom="0"
     inkscape:zoom="10.235294"
     inkscape:cx="17.800464"
     inkscape:cy="44.666408"
     inkscape:window-x="0"
     inkscape:window-y="0"
     inkscape:window-maximized="0"
     inkscape:current-layer="Ebene_2" /><g
     id="g3"
     transform="translate(-237.8,-349)"
     style="fill:#e4544f;stroke:none;fill-opacity:1"><path
       d="m 255.6,349 c -9.9,0 -17.8,8 -17.8,17.8 0,9.9 15.2,33.2 17.8,33.2 2.5,0 17.8,-23.4 17.8,-33.2 0.1,-9.8 -7.9,-17.8 -17.8,-17.8 z m 0,30.7 c -7.3,0 -13.2,-5.9 -13.2,-13.2 0,-7.3 5.9,-13.2 13.2,-13.2 7.3,0 13.2,5.9 13.2,13.2 0.1,7.3 -5.8,13.2 -13.2,13.2 z"
       id="path5"
       inkscape:connector-curvature="0"
       style="fill:#e4544f;stroke:none;fill-opacity:1" /><path
       d="m 266.9,365.7 c 0,0 1,2.1 -1.5,2.9 0,0 -1.6,0.5 -4.1,-0.2 0,0 -3.1,-0.9 -5.6,-3.1 l -0.1,0 c -2.5,2.2 -5.6,3.1 -5.6,3.1 -2.5,0.7 -4.1,0.2 -4.1,0.2 -2.5,-0.8 -1.5,-2.9 -1.5,-2.9 0.4,-0.9 1.5,-0.7 1.5,-0.7 -0.4,0.3 -0.5,0.6 -0.5,0.6 -0.2,0.5 0.1,0.7 0.1,0.7 0.4,0.4 1.2,-0.4 1.2,-0.4 0.6,-0.6 2.2,-2 2.2,-2 3.6,-3.3 6.7,-0.8 6.7,-0.8 l 0.1,0 c 0,0 3.1,-2.5 6.7,0.8 0,0 1.6,1.4 2.2,2 0,0 0.8,0.8 1.2,0.4 0,0 0.3,-0.2 0.1,-0.7 0,0 -0.1,-0.3 -0.5,-0.6 0,0 1.1,-0.2 1.5,0.7 z"
       id="path7"
       inkscape:connector-curvature="0"
       style="fill:#e4544f;stroke:none;fill-opacity:1" /><path
       d="m 265.9,365.6 c 0.2,0.5 -0.1,0.7 -0.1,0.7 -0.4,0.4 -1.2,-0.4 -1.2,-0.4 -0.6,-0.6 -2.2,-2 -2.2,-2 -3.6,-3.3 -6.7,-0.8 -6.7,-0.8 l -0.1,0 c 0,0 -3.1,-2.5 -6.7,0.8 0,0 -1.6,1.4 -2.2,2 0,0 -0.8,0.8 -1.2,0.4 0,0 -0.3,-0.2 -0.1,-0.7 0,0 0.1,-0.3 0.5,-0.6 0,0 -1.1,-0.2 -1.5,0.7 0,0 -1,2.1 1.5,2.9 0,0 1.6,0.5 4.1,-0.2 0,0 3.1,-0.9 5.6,-3.1 l 0.1,0 c 2.5,2.2 5.6,3.1 5.6,3.1 2.5,0.7 4.1,0.2 4.1,0.2 2.5,-0.8 1.5,-2.9 1.5,-2.9 -0.4,-0.9 -1.5,-0.7 -1.5,-0.7 0.4,0.3 0.5,0.6 0.5,0.6 z"
       id="path9"
       inkscape:connector-curvature="0"
       style="fill:#e4544f;stroke:none;fill-opacity:1" /><linearGradient
       id="SVGID_1_"
       gradientUnits="userSpaceOnUse"
       x1="244.15649"
       y1="365.41959"
       x2="267.0545"
       y2="365.41959"><stop
         offset="0"
         style="stop-color:#000000"
         id="stop12" /><stop
         offset="1"
         style="stop-color:#000000"
         id="stop14" /></linearGradient><path
       d="m 265.9,365.6 c 0.2,0.5 -0.1,0.7 -0.1,0.7 -0.4,0.4 -1.2,-0.4 -1.2,-0.4 -0.6,-0.6 -2.2,-2 -2.2,-2 -3.6,-3.3 -6.7,-0.8 -6.7,-0.8 l -0.1,0 c 0,0 -3.1,-2.5 -6.7,0.8 0,0 -1.6,1.4 -2.2,2 0,0 -0.8,0.8 -1.2,0.4 0,0 -0.3,-0.2 -0.1,-0.7 0,0 0.1,-0.3 0.5,-0.6 0,0 -1.1,-0.2 -1.5,0.7 0,0 -1,2.1 1.5,2.9 0,0 1.6,0.5 4.1,-0.2 0,0 3.1,-0.9 5.6,-3.1 l 0.1,0 c 2.5,2.2 5.6,3.1 5.6,3.1 2.5,0.7 4.1,0.2 4.1,0.2 2.5,-0.8 1.5,-2.9 1.5,-2.9 -0.4,-0.9 -1.5,-0.7 -1.5,-0.7 0.4,0.3 0.5,0.6 0.5,0.6 z"
       id="path16"
       inkscape:connector-curvature="0"
       style="fill:#e4544f;stroke:none;fill-opacity:1" /></g><use
     x="0"
     y="0"
     xlink:href="#g3"
     id="use4150"
     width="100%"
     height="100%"
     style="fill:#e4544f;stroke:none;fill-opacity:1" /><use
     id="use4152"
     xlink:href="#g3"
     y="0"
     x="0"
     width="100%"
     height="100%"
     style="fill:#e4544f;fill-opacity:1;stroke:none" /></svg>